ffmpeg version N-89310-g86cead5256 Copyright (c) 2000-2017 the FFmpeg developers
  built with gcc 7.2.0 (GCC)
  configuration: --enable-gpl --enable-version3 --enable-sdl2 --enable-bzlib --enable-fontconfig --enable-gnutls --enable-iconv --enable-libass --enable-libbluray --enable-libfreetype --enable-libmp3lame --enable-libopenjpeg --enable-libopus --enable-libshine --enable-libsnappy --enable-libsoxr --enable-libtheora --enable-libtwolame --enable-libvpx --enable-libwavpack --enable-libwebp --enable-libx264 --enable-libx265 --enable-libxml2 --enable-libzimg --enable-lzma --enable-zlib --enable-gmp --enable-libvidstab --enable-libvorbis --enable-cuda --enable-cuvid --enable-d3d11va --enable-nvenc --enable-dxva2 --enable-avisynth --enable-libmfx
  libavutil      56.  3.100 / 56.  3.100
  libavcodec     58.  6.101 / 58.  6.101
  libavformat    58.  2.103 / 58.  2.103
  libavdevice    58.  0.100 / 58.  0.100
  libavfilter     7.  5.100 /  7.  5.100
  libswscale      5.  0.101 /  5.  0.101
  libswresample   3.  0.101 /  3.  0.101
  libpostproc    55.  0.100 / 55.  0.100
Input #0, mov,mp4,m4a,3gp,3g2,mj2, from '/zfspool/video/1080/1080.mp4':
  Metadata:
    major_brand     : dash
    minor_version   : 0
    compatible_brands: iso6avc1mp41
    creation_time   : 2018-05-17T20:39:10.000000Z
  Duration: 00:02:29.28, start: 0.000000, bitrate: 4043 kb/s
    Stream #0:0(und): Video: h264 (High) (avc1 / 0x31637661), yuv420p(tv, bt709, progressive), 1920x1080 [SAR 1:1 DAR 16:9], 92 kb/s, 29.97 fps, 29.97 tbr, 2997 tbn, 59.94 tbc (default)
    Metadata:
      creation_time   : 2018-05-17T20:39:10.000000Z
      handler_name    : ISO Media file produced by Google Inc. Created on: 05/17/2018.
Stream mapping:
  Stream #0:0 -> #0:0 (h264 (native) -> h264 (libx264))
Press [q] to stop, [?] for help
[libx264 @ 000001e766b70940] using SAR=1/1
[libx264 @ 000001e766b70940] using cpu capabilities: MMX2 SSE2Fast SSSE3 SSE4.2 AVX FMA3 BMI2 AVX2
[libx264 @ 000001e766b70940] profile High, level 4.0
[libx264 @ 000001e766b70940] 264 - core 152 r2851 ba24899 - H.264/MPEG-4 AVC codec - Copyleft 2003-2017 - http://www.videolan.org/x264.html - options: cabac=1 ref=1 deblock=1:0:0 analyse=0x3:0x113 me=hex subme=2 psy=1 psy_rd=1.00:0.00 mixed_ref=0 me_range=16 chroma_me=1 trellis=0 8x8dct=1 cqm=0 deadzone=21,11 fast_pskip=1 chroma_qp_offset=0 threads=24 lookahead_threads=8 sliced_threads=0 nr=0 decimate=1 interlaced=0 bluray_compat=0 constrained_intra=0 bframes=3 b_pyramid=2 b_adapt=1 b_bias=0 direct=1 weightb=1 open_gop=0 weightp=1 keyint=250 keyint_min=25 scenecut=40 intra_refresh=0 rc_lookahead=10 rc=abr mbtree=1 bitrate=8000 ratetol=1.0 qcomp=0.60 qpmin=0 qpmax=69 qpstep=4 ip_ratio=1.40 aq=1:1.00
Output #0, mp4, to '/zfspool/video/1080/1080.1080p.mp4':
  Metadata:
    major_brand     : dash
    minor_version   : 0
    compatible_brands: iso6avc1mp41
    encoder         : Lavf58.2.103
    Stream #0:0(und): Video: h264 (libx264) (avc1 / 0x31637661), yuv420p, 1920x1080 [SAR 1:1 DAR 16:9], q=-1--1, 8000 kb/s, 29.97 fps, 11988 tbn, 29.97 tbc (default)
    Metadata:
      creation_time   : 2018-05-17T20:39:10.000000Z
      handler_name    : ISO Media file produced by Google Inc. Created on: 05/17/2018.
      encoder         : Lavc58.6.101 libx264
    Side data:
      cpb: bitrate max/min/avg: 0/0/8000000 buffer size: 0 vbv_delay: -1
frame=  114 fps=0.0 q=0.0 size=       0kB time=00:00:02.43 bitrate=   0.2kbits/s speed=4.85x    frame=  168 fps=164 q=20.0 size=   14080kB time=00:00:04.23 bitrate=27218.8kbits/s speed=4.13x    frame=  229 fps=150 q=29.0 size=   20224kB time=00:00:06.27 bitrate=26410.8kbits/s speed= 4.1x    frame=  300 fps=148 q=31.0 size=   22528kB time=00:00:08.64 bitrate=21354.8kbits/s speed=4.25x    frame=  376 fps=148 q=31.0 size=   23808kB time=00:00:11.17 bitrate=17448.3kbits/s speed=4.41x    frame=  442 fps=145 q=32.0 size=   26112kB time=00:00:13.38 bitrate=15987.1kbits/s speed= 4.4x    frame=  510 fps=144 q=33.0 size=   27904kB time=00:00:15.64 bitrate=14607.3kbits/s speed=4.42x    frame=  579 fps=143 q=34.0 size=   29696kB time=00:00:17.95 bitrate=13551.6kbits/s speed=4.43x    frame=  647 fps=142 q=34.0 size=   31232kB time=00:00:20.22 bitrate=12653.3kbits/s speed=4.44x    frame=  718 fps=142 q=35.0 size=   33024kB time=00:00:22.58 bitrate=11976.1kbits/s speed=4.47x    frame=  790 fps=142 q=35.0 size=   34560kB time=00:00:24.99 bitrate=11328.4kbits/s speed= 4.5x    frame=  863 fps=142 q=34.0 size=   35840kB time=00:00:27.42 bitrate=10704.6kbits/s speed=4.53x    frame=  944 fps=144 q=33.0 size=   37120kB time=00:00:30.13 bitrate=10092.4kbits/s speed=4.59x    frame= 1014 fps=143 q=33.0 size=   38912kB time=00:00:32.46 bitrate=9818.5kbits/s speed=4.59x    frame= 1090 fps=144 q=33.0 size=   40192kB time=00:00:35.00 bitrate=9406.8kbits/s speed=4.62x    frame= 1165 fps=144 q=32.0 size=   42240kB time=00:00:37.50 bitrate=9226.4kbits/s speed=4.63x    frame= 1238 fps=144 q=32.0 size=   44032kB time=00:00:39.94 bitrate=9031.3kbits/s speed=4.65x    frame= 1311 fps=144 q=32.0 size=   45824kB time=00:00:42.37 bitrate=8858.6kbits/s speed=4.66x    frame= 1382 fps=144 q=31.0 size=   47616kB time=00:00:44.74 bitrate=8717.7kbits/s speed=4.66x    frame= 1444 fps=143 q=29.0 size=   49920kB time=00:00:46.81 bitrate=8735.6kbits/s speed=4.63x    frame= 1517 fps=143 q=31.0 size=   51712kB time=00:00:49.24 bitrate=8601.6kbits/s speed=4.64x    frame= 1588 fps=143 q=31.0 size=   53504kB time=00:00:51.61 bitrate=8491.3kbits/s speed=4.64x    frame= 1656 fps=143 q=31.0 size=   56064kB time=00:00:53.88 bitrate=8522.9kbits/s speed=4.64x    frame= 1726 fps=142 q=31.0 size=   57856kB time=00:00:56.22 bitrate=8429.9kbits/s speed=4.64x    frame= 1794 fps=142 q=31.0 size=   60160kB time=00:00:58.49 bitrate=8425.6kbits/s speed=4.63x    